<?xml version="1.0" standalone="no"?>
<!DOCTYPE svg PUBLIC "-//W3C//DTD SVG 20010904//EN"
 "http://www.w3.org/TR/2001/REC-SVG-20010904/DTD/svg10.dtd">
<svg version="1.0" xmlns="http://www.w3.org/2000/svg"
 width="500.000000pt" height="231.000000pt" viewBox="0 0 500.000000 231.000000"
 preserveAspectRatio="xMidYMid meet">

<g transform="translate(0.000000,231.000000) scale(0.100000,-0.100000)"
fill="#000000" stroke="none">
<path d="M2081 1388 c-57 -29 -83 -66 -85 -116 -2 -82 41 -119 167 -147 111
-24 145 -65 95 -112 -41 -38 -125 -34 -166 7 -24 23 -39 30 -71 30 l-40 0 9
-31 c21 -72 76 -103 185 -103 64 -1 88 4 121 21 53 28 78 78 71 142 -7 66 -44
95 -148 117 -89 20 -129 43 -129 78 0 55 89 83 148 47 17 -12 32 -28 32 -36 0
-11 11 -15 45 -15 52 0 58 14 25 67 -26 44 -72 65 -150 70 -54 4 -73 0 -109
-19z"/>
<path d="M560 1160 l0 -240 111 0 c139 0 190 13 239 59 91 87 90 282 -2 368
-45 43 -89 53 -223 53 l-125 0 0 -240z m240 152 c54 -27 80 -74 80 -146 0
-115 -48 -168 -152 -170 l-63 -1 -3 168 -2 167 52 0 c31 0 68 -7 88 -18z"/>
<path d="M3430 1160 l0 -240 45 0 45 0 0 58 c1 58 23 109 38 86 4 -7 27 -41
52 -78 l45 -66 53 0 53 0 -47 68 c-26 37 -58 82 -72 100 l-24 33 49 55 c90
105 89 99 31 98 -48 -2 -50 -3 -111 -75 l-62 -74 -3 138 -3 137 -44 0 -45 0 0
-240z"/>
<path d="M3975 1168 c-44 -128 -81 -236 -83 -240 -2 -4 18 -8 46 -8 l49 0 18
60 18 60 92 0 92 0 17 -60 17 -60 49 0 49 0 -80 231 c-43 127 -82 235 -85 240
-3 5 -31 9 -62 9 l-57 0 -80 -232z m176 46 c16 -49 29 -92 29 -96 0 -5 -30 -8
-66 -8 -58 0 -66 2 -61 18 2 9 15 54 28 100 13 45 28 81 33 79 5 -2 22 -43 37
-93z"/>
<path d="M4390 1160 l0 -240 45 0 45 0 0 240 0 240 -45 0 -45 0 0 -240z"/>
<path d="M1420 1323 c0 -39 -2 -43 -25 -43 -22 0 -25 -4 -25 -35 0 -31 3 -35
25 -35 l25 0 0 -109 c0 -60 4 -121 10 -136 12 -30 63 -55 115 -55 33 0 35 2
35 35 0 31 -3 35 -25 35 -37 0 -46 29 -43 133 l3 92 33 3 c29 3 32 6 32 38 0
32 -2 34 -35 34 -35 0 -35 1 -35 43 l0 42 -45 0 -45 0 0 -42z"/>
<path d="M1095 1262 c-36 -22 -50 -39 -59 -69 -7 -21 -4 -23 29 -23 25 0 47 8
67 25 33 28 49 30 81 14 28 -15 37 -28 37 -56 0 -21 -5 -23 -47 -23 -100 -1
-170 -32 -184 -82 -29 -108 111 -181 196 -102 32 30 35 30 35 -1 0 -23 4 -25
46 -25 l45 0 -3 145 -3 145 -32 32 c-30 30 -39 33 -105 36 -58 2 -79 -1 -103
-16z m155 -206 c0 -40 -36 -76 -77 -76 -36 0 -73 23 -73 45 0 30 46 52 113 54
33 1 37 -2 37 -23z"/>
<path d="M1692 1263 c-30 -15 -62 -57 -62 -83 0 -5 17 -10 39 -10 27 0 43 6
52 20 8 11 28 23 46 26 26 5 37 1 58 -20 37 -37 30 -60 -20 -64 -92 -6 -144
-23 -170 -53 -30 -36 -32 -73 -5 -116 35 -59 137 -66 185 -13 24 27 35 25 35
-5 0 -23 4 -25 45 -25 l45 0 0 125 c0 144 -11 184 -62 215 -41 25 -138 27
-186 3z m151 -218 c-3 -40 -36 -65 -84 -65 -28 0 -41 5 -49 20 -25 47 18 81
95 77 38 -2 40 -4 38 -32z"/>
<path d="M2420 1040 l0 -240 45 0 45 0 0 92 0 92 31 -32 c36 -37 84 -49 132
-33 64 21 97 84 97 183 0 114 -52 178 -145 178 -38 0 -52 -5 -77 -30 -16 -16
-31 -30 -34 -30 -2 0 -4 14 -4 30 0 29 -2 30 -45 30 l-45 0 0 -240z m234 139
c47 -55 31 -159 -28 -187 -64 -31 -122 31 -113 122 8 91 89 128 141 65z"/>
<path d="M2883 1260 c-27 -16 -63 -65 -63 -85 0 -3 16 -5 36 -5 24 0 46 9 67
26 24 20 37 24 61 20 35 -7 56 -30 56 -61 0 -20 -7 -23 -74 -28 -114 -8 -156
-38 -156 -110 0 -71 75 -118 153 -96 21 5 43 19 50 30 16 26 27 24 27 -6 0
-23 4 -25 45 -25 l45 0 0 131 c0 151 -11 188 -65 213 -47 23 -142 21 -182 -4z
m157 -204 c0 -13 -9 -35 -21 -50 -27 -35 -90 -37 -113 -4 -29 42 12 75 97 77
33 1 37 -2 37 -23z"/>
<path d="M3190 1100 l0 -180 45 0 45 0 0 119 c0 139 11 164 73 165 36 1 37 2
37 39 0 34 -2 37 -29 37 -21 0 -37 -9 -55 -32 l-26 -33 0 33 c0 31 -1 32 -45
32 l-45 0 0 -180z"/>
</g>
</svg>
